<svg width="68" height="95" viewBox="0 0 68 95" fill="none" xmlns="http://www.w3.org/2000/svg">
<path d="M38.5 5C38.5 2.51472 36.4853 0.5 34 0.5C31.5147 0.5 29.5 2.51472 29.5 5H34H38.5ZM30.818 93.182C32.5754 94.9393 35.4246 94.9393 37.182 93.182L65.8198 64.5442C67.5772 62.7868 67.5772 59.9376 65.8198 58.1802C64.0624 56.4228 61.2132 56.4228 59.4558 58.1802L34 83.636L8.54416 58.1802C6.7868 56.4228 3.93755 56.4228 2.18019 58.1802C0.422836 59.9376 0.422836 62.7868 2.18019 64.5442L30.818 93.182ZM34 5H29.5L29.5 90H34H38.5L38.5 5H34Z" fill="black"/>
</svg>
