<svg width="742" height="443" viewBox="0 0 742 443" fill="none" xmlns="http://www.w3.org/2000/svg">
<path d="M120.398 58.1174C118.637 50.2975 113.468 44.8223 108.854 45.8869C105.208 46.7298 83.0561 61.1656 73.9282 67.1858C81.745 59.4863 100.538 40.7856 102.161 37.3636C104.215 33.0354 100.107 26.6984 92.9832 23.2193C85.8594 19.7403 78.4235 20.4247 76.3632 24.7592C74.7399 28.1812 72.0489 54.7588 70.9938 65.7599C69.9386 54.7588 67.2477 28.1876 65.6244 24.7592C63.5703 20.4247 56.1282 19.7403 49.0044 23.2193C41.8807 26.6984 37.7725 33.0354 39.8266 37.3636C41.4499 40.7856 60.2426 59.4926 68.0594 67.1858C58.9252 61.1656 36.7797 46.7298 33.1336 45.8869C28.5134 44.816 23.3439 50.2912 21.5895 58.1174C19.8288 65.9374 22.1452 73.1489 26.7653 74.2199C30.4115 75.0627 56.5402 71.8118 67.3414 70.4113C57.0085 73.903 32.0847 82.4771 29.1565 84.8471C25.4542 87.8446 26.4469 95.3603 31.3792 101.634C36.3053 107.908 43.3042 110.563 47.0065 107.565C49.9347 105.195 63.7139 82.439 69.3705 72.9905C65.6182 83.3706 56.6839 108.491 56.6839 112.293C56.6839 117.103 63.0896 121 71 121C78.9104 121 85.3162 117.103 85.3162 112.293C85.3162 108.497 76.3818 83.3706 72.6295 72.9905C78.2861 82.439 92.0654 105.195 94.9935 107.565C98.6959 110.563 105.695 107.908 110.621 101.634C115.547 95.3603 116.546 87.8446 112.843 84.8471C109.915 82.4771 84.9915 73.903 74.6586 70.4113C85.4598 71.8118 111.582 75.0627 115.235 74.2199C119.855 73.1489 122.171 65.9437 120.411 58.1174H120.398Z" fill="#D97757"/>
<path d="M120.398 258.117C118.637 250.298 113.468 244.822 108.854 245.887C105.208 246.73 83.0561 261.166 73.9282 267.186C81.745 259.486 100.538 240.786 102.161 237.364C104.215 233.035 100.107 226.698 92.9832 223.219C85.8594 219.74 78.4235 220.425 76.3632 224.759C74.7399 228.181 72.0489 254.759 70.9938 265.76C69.9386 254.759 67.2477 228.188 65.6244 224.759C63.5703 220.425 56.1282 219.74 49.0044 223.219C41.8807 226.698 37.7725 233.035 39.8266 237.364C41.4499 240.786 60.2426 259.493 68.0594 267.186C58.9252 261.166 36.7797 246.73 33.1336 245.887C28.5134 244.816 23.3439 250.291 21.5895 258.117C19.8288 265.937 22.1452 273.149 26.7653 274.22C30.4115 275.063 56.5402 271.812 67.3414 270.411C57.0085 273.903 32.0847 282.477 29.1565 284.847C25.4542 287.845 26.4469 295.36 31.3792 301.634C36.3053 307.908 43.3042 310.563 47.0065 307.565C49.9347 305.195 63.7139 282.439 69.3705 272.991C65.6182 283.371 56.6839 308.491 56.6839 312.293C56.6839 317.103 63.0896 321 71 321C78.9104 321 85.3162 317.103 85.3162 312.293C85.3162 308.497 76.3818 283.371 72.6295 272.991C78.2861 282.439 92.0654 305.195 94.9935 307.565C98.6959 310.563 105.695 307.908 110.621 301.634C115.547 295.36 116.546 287.845 112.843 284.847C109.915 282.477 84.9915 273.903 74.6586 270.411C85.4598 271.812 111.582 275.063 115.235 274.22C119.855 273.149 122.171 265.944 120.411 258.117H120.398Z" fill="#D97757"/>
<path d="M220.398 158.117C218.637 150.298 213.468 144.822 208.854 145.887C205.208 146.73 183.056 161.166 173.928 167.186C181.745 159.486 200.538 140.786 202.161 137.364C204.215 133.035 200.107 126.698 192.983 123.219C185.859 119.74 178.423 120.425 176.363 124.759C174.74 128.181 172.049 154.759 170.994 165.76C169.939 154.759 167.248 128.188 165.624 124.759C163.57 120.425 156.128 119.74 149.004 123.219C141.881 126.698 137.773 133.035 139.827 137.364C141.45 140.786 160.243 159.493 168.059 167.186C158.925 161.166 136.78 146.73 133.134 145.887C128.513 144.816 123.344 150.291 121.589 158.117C119.829 165.937 122.145 173.149 126.765 174.22C130.411 175.063 156.54 171.812 167.341 170.411C157.008 173.903 132.085 182.477 129.157 184.847C125.454 187.845 126.447 195.36 131.379 201.634C136.305 207.908 143.304 210.563 147.007 207.565C149.935 205.195 163.714 182.439 169.37 172.991C165.618 183.371 156.684 208.491 156.684 212.293C156.684 217.103 163.09 221 171 221C178.91 221 185.316 217.103 185.316 212.293C185.316 208.497 176.382 183.371 172.63 172.991C178.286 182.439 192.065 205.195 194.994 207.565C198.696 210.563 205.695 207.908 210.621 201.634C215.547 195.36 216.546 187.845 212.843 184.847C209.915 182.477 184.992 173.903 174.659 170.411C185.46 171.812 211.582 175.063 215.235 174.22C219.855 173.149 222.171 165.944 220.411 158.117H220.398Z" fill="#D97757"/>
<path d="M220.398 358.117C218.637 350.298 213.468 344.822 208.854 345.887C205.208 346.73 183.056 361.166 173.928 367.186C181.745 359.486 200.538 340.786 202.161 337.364C204.215 333.035 200.107 326.698 192.983 323.219C185.859 319.74 178.423 320.425 176.363 324.759C174.74 328.181 172.049 354.759 170.994 365.76C169.939 354.759 167.248 328.188 165.624 324.759C163.57 320.425 156.128 319.74 149.004 323.219C141.881 326.698 137.773 333.035 139.827 337.364C141.45 340.786 160.243 359.493 168.059 367.186C158.925 361.166 136.78 346.73 133.134 345.887C128.513 344.816 123.344 350.291 121.589 358.117C119.829 365.937 122.145 373.149 126.765 374.22C130.411 375.063 156.54 371.812 167.341 370.411C157.008 373.903 132.085 382.477 129.157 384.847C125.454 387.845 126.447 395.36 131.379 401.634C136.305 407.908 143.304 410.563 147.007 407.565C149.935 405.195 163.714 382.439 169.37 372.991C165.618 383.371 156.684 408.491 156.684 412.293C156.684 417.103 163.09 421 171 421C178.91 421 185.316 417.103 185.316 412.293C185.316 408.497 176.382 383.371 172.63 372.991C178.286 382.439 192.065 405.195 194.994 407.565C198.696 410.563 205.695 407.908 210.621 401.634C215.547 395.36 216.546 387.845 212.843 384.847C209.915 382.477 184.992 373.903 174.659 370.411C185.46 371.812 211.582 375.063 215.235 374.22C219.855 373.149 222.171 365.944 220.411 358.117H220.398Z" fill="#D97757"/>
<path d="M320.398 58.1174C318.637 50.2975 313.468 44.8223 308.854 45.8869C305.208 46.7298 283.056 61.1656 273.928 67.1858C281.745 59.4863 300.538 40.7856 302.161 37.3636C304.215 33.0354 300.107 26.6984 292.983 23.2193C285.859 19.7403 278.423 20.4247 276.363 24.7592C274.74 28.1812 272.049 54.7588 270.994 65.7599C269.939 54.7588 267.248 28.1876 265.624 24.7592C263.57 20.4247 256.128 19.7403 249.004 23.2193C241.881 26.6984 237.773 33.0354 239.827 37.3636C241.45 40.7856 260.243 59.4926 268.059 67.1858C258.925 61.1656 236.78 46.7298 233.134 45.8869C228.513 44.816 223.344 50.2912 221.589 58.1174C219.829 65.9374 222.145 73.1489 226.765 74.2199C230.411 75.0627 256.54 71.8118 267.341 70.4113C257.008 73.903 232.085 82.4771 229.157 84.8471C225.454 87.8446 226.447 95.3603 231.379 101.634C236.305 107.908 243.304 110.563 247.007 107.565C249.935 105.195 263.714 82.439 269.37 72.9905C265.618 83.3706 256.684 108.491 256.684 112.293C256.684 117.103 263.09 121 271 121C278.91 121 285.316 117.103 285.316 112.293C285.316 108.497 276.382 83.3706 272.63 72.9905C278.286 82.439 292.065 105.195 294.994 107.565C298.696 110.563 305.695 107.908 310.621 101.634C315.547 95.3603 316.546 87.8446 312.843 84.8471C309.915 82.4771 284.992 73.903 274.659 70.4113C285.46 71.8118 311.582 75.0627 315.235 74.2199C319.855 73.1489 322.171 65.9437 320.411 58.1174H320.398Z" fill="#D97757"/>
<path d="M320.398 258.117C318.637 250.298 313.468 244.822 308.854 245.887C305.208 246.73 283.056 261.166 273.928 267.186C281.745 259.486 300.538 240.786 302.161 237.364C304.215 233.035 300.107 226.698 292.983 223.219C285.859 219.74 278.423 220.425 276.363 224.759C274.74 228.181 272.049 254.759 270.994 265.76C269.939 254.759 267.248 228.188 265.624 224.759C263.57 220.425 256.128 219.74 249.004 223.219C241.881 226.698 237.773 233.035 239.827 237.364C241.45 240.786 260.243 259.493 268.059 267.186C258.925 261.166 236.78 246.73 233.134 245.887C228.513 244.816 223.344 250.291 221.589 258.117C219.829 265.937 222.145 273.149 226.765 274.22C230.411 275.063 256.54 271.812 267.341 270.411C257.008 273.903 232.085 282.477 229.157 284.847C225.454 287.845 226.447 295.36 231.379 301.634C236.305 307.908 243.304 310.563 247.007 307.565C249.935 305.195 263.714 282.439 269.37 272.991C265.618 283.371 256.684 308.491 256.684 312.293C256.684 317.103 263.09 321 271 321C278.91 321 285.316 317.103 285.316 312.293C285.316 308.497 276.382 283.371 272.63 272.991C278.286 282.439 292.065 305.195 294.994 307.565C298.696 310.563 305.695 307.908 310.621 301.634C315.547 295.36 316.546 287.845 312.843 284.847C309.915 282.477 284.992 273.903 274.659 270.411C285.46 271.812 311.582 275.063 315.235 274.22C319.855 273.149 322.171 265.944 320.411 258.117H320.398Z" fill="#D97757"/>
<path d="M420.398 158.117C418.637 150.298 413.468 144.822 408.854 145.887C405.208 146.73 383.056 161.166 373.928 167.186C381.745 159.486 400.538 140.786 402.161 137.364C404.215 133.035 400.107 126.698 392.983 123.219C385.859 119.74 378.423 120.425 376.363 124.759C374.74 128.181 372.049 154.759 370.994 165.76C369.939 154.759 367.248 128.188 365.624 124.759C363.57 120.425 356.128 119.74 349.004 123.219C341.881 126.698 337.773 133.035 339.827 137.364C341.45 140.786 360.243 159.493 368.059 167.186C358.925 161.166 336.78 146.73 333.134 145.887C328.513 144.816 323.344 150.291 321.589 158.117C319.829 165.937 322.145 173.149 326.765 174.22C330.411 175.063 356.54 171.812 367.341 170.411C357.008 173.903 332.085 182.477 329.157 184.847C325.454 187.845 326.447 195.36 331.379 201.634C336.305 207.908 343.304 210.563 347.007 207.565C349.935 205.195 363.714 182.439 369.37 172.991C365.618 183.371 356.684 208.491 356.684 212.293C356.684 217.103 363.09 221 371 221C378.91 221 385.316 217.103 385.316 212.293C385.316 208.497 376.382 183.371 372.63 172.991C378.286 182.439 392.065 205.195 394.994 207.565C398.696 210.563 405.695 207.908 410.621 201.634C415.547 195.36 416.546 187.845 412.843 184.847C409.915 182.477 384.992 173.903 374.659 170.411C385.46 171.812 411.582 175.063 415.235 174.22C419.855 173.149 422.171 165.944 420.411 158.117H420.398Z" fill="#D97757"/>
<path d="M420.398 358.117C418.637 350.298 413.468 344.822 408.854 345.887C405.208 346.73 383.056 361.166 373.928 367.186C381.745 359.486 400.538 340.786 402.161 337.364C404.215 333.035 400.107 326.698 392.983 323.219C385.859 319.74 378.423 320.425 376.363 324.759C374.74 328.181 372.049 354.759 370.994 365.76C369.939 354.759 367.248 328.188 365.624 324.759C363.57 320.425 356.128 319.74 349.004 323.219C341.881 326.698 337.773 333.035 339.827 337.364C341.45 340.786 360.243 359.493 368.059 367.186C358.925 361.166 336.78 346.73 333.134 345.887C328.513 344.816 323.344 350.291 321.589 358.117C319.829 365.937 322.145 373.149 326.765 374.22C330.411 375.063 356.54 371.812 367.341 370.411C357.008 373.903 332.085 382.477 329.157 384.847C325.454 387.845 326.447 395.36 331.379 401.634C336.305 407.908 343.304 410.563 347.007 407.565C349.935 405.195 363.714 382.439 369.37 372.991C365.618 383.371 356.684 408.491 356.684 412.293C356.684 417.103 363.09 421 371 421C378.91 421 385.316 417.103 385.316 412.293C385.316 408.497 376.382 383.371 372.63 372.991C378.286 382.439 392.065 405.195 394.994 407.565C398.696 410.563 405.695 407.908 410.621 401.634C415.547 395.36 416.546 387.845 412.843 384.847C409.915 382.477 384.992 373.903 374.659 370.411C385.46 371.812 411.582 375.063 415.235 374.22C419.855 373.149 422.171 365.944 420.411 358.117H420.398Z" fill="#D97757"/>
<path d="M520.398 58.1174C518.637 50.2975 513.468 44.8223 508.854 45.8869C505.208 46.7298 483.056 61.1656 473.928 67.1858C481.745 59.4863 500.538 40.7856 502.161 37.3636C504.215 33.0354 500.107 26.6984 492.983 23.2193C485.859 19.7403 478.423 20.4247 476.363 24.7592C474.74 28.1812 472.049 54.7588 470.994 65.7599C469.939 54.7588 467.248 28.1876 465.624 24.7592C463.57 20.4247 456.128 19.7403 449.004 23.2193C441.881 26.6984 437.773 33.0354 439.827 37.3636C441.45 40.7856 460.243 59.4926 468.059 67.1858C458.925 61.1656 436.78 46.7298 433.134 45.8869C428.513 44.816 423.344 50.2912 421.589 58.1174C419.829 65.9374 422.145 73.1489 426.765 74.2199C430.411 75.0627 456.54 71.8118 467.341 70.4113C457.008 73.903 432.085 82.4771 429.157 84.8471C425.454 87.8446 426.447 95.3603 431.379 101.634C436.305 107.908 443.304 110.563 447.007 107.565C449.935 105.195 463.714 82.439 469.37 72.9905C465.618 83.3706 456.684 108.491 456.684 112.293C456.684 117.103 463.09 121 471 121C478.91 121 485.316 117.103 485.316 112.293C485.316 108.497 476.382 83.3706 472.63 72.9905C478.286 82.439 492.065 105.195 494.994 107.565C498.696 110.563 505.695 107.908 510.621 101.634C515.547 95.3603 516.546 87.8446 512.843 84.8471C509.915 82.4771 484.992 73.903 474.659 70.4113C485.46 71.8118 511.582 75.0627 515.235 74.2199C519.855 73.1489 522.171 65.9437 520.411 58.1174H520.398Z" fill="#D97757"/>
<path d="M520.398 258.117C518.637 250.298 513.468 244.822 508.854 245.887C505.208 246.73 483.056 261.166 473.928 267.186C481.745 259.486 500.538 240.786 502.161 237.364C504.215 233.035 500.107 226.698 492.983 223.219C485.859 219.74 478.423 220.425 476.363 224.759C474.74 228.181 472.049 254.759 470.994 265.76C469.939 254.759 467.248 228.188 465.624 224.759C463.57 220.425 456.128 219.74 449.004 223.219C441.881 226.698 437.773 233.035 439.827 237.364C441.45 240.786 460.243 259.493 468.059 267.186C458.925 261.166 436.78 246.73 433.134 245.887C428.513 244.816 423.344 250.291 421.589 258.117C419.829 265.937 422.145 273.149 426.765 274.22C430.411 275.063 456.54 271.812 467.341 270.411C457.008 273.903 432.085 282.477 429.157 284.847C425.454 287.845 426.447 295.36 431.379 301.634C436.305 307.908 443.304 310.563 447.007 307.565C449.935 305.195 463.714 282.439 469.37 272.991C465.618 283.371 456.684 308.491 456.684 312.293C456.684 317.103 463.09 321 471 321C478.91 321 485.316 317.103 485.316 312.293C485.316 308.497 476.382 283.371 472.63 272.991C478.286 282.439 492.065 305.195 494.994 307.565C498.696 310.563 505.695 307.908 510.621 301.634C515.547 295.36 516.546 287.845 512.843 284.847C509.915 282.477 484.992 273.903 474.659 270.411C485.46 271.812 511.582 275.063 515.235 274.22C519.855 273.149 522.171 265.944 520.411 258.117H520.398Z" fill="#D97757"/>
<path d="M620.398 158.117C618.637 150.298 613.468 144.822 608.854 145.887C605.208 146.73 583.056 161.166 573.928 167.186C581.745 159.486 600.538 140.786 602.161 137.364C604.215 133.035 600.107 126.698 592.983 123.219C585.859 119.74 578.423 120.425 576.363 124.759C574.74 128.181 572.049 154.759 570.994 165.76C569.939 154.759 567.248 128.188 565.624 124.759C563.57 120.425 556.128 119.74 549.004 123.219C541.881 126.698 537.773 133.035 539.827 137.364C541.45 140.786 560.243 159.493 568.059 167.186C558.925 161.166 536.78 146.73 533.134 145.887C528.513 144.816 523.344 150.291 521.589 158.117C519.829 165.937 522.145 173.149 526.765 174.22C530.411 175.063 556.54 171.812 567.341 170.411C557.008 173.903 532.085 182.477 529.157 184.847C525.454 187.845 526.447 195.36 531.379 201.634C536.305 207.908 543.304 210.563 547.007 207.565C549.935 205.195 563.714 182.439 569.37 172.991C565.618 183.371 556.684 208.491 556.684 212.293C556.684 217.103 563.09 221 571 221C578.91 221 585.316 217.103 585.316 212.293C585.316 208.497 576.382 183.371 572.63 172.991C578.286 182.439 592.065 205.195 594.994 207.565C598.696 210.563 605.695 207.908 610.621 201.634C615.547 195.36 616.546 187.845 612.843 184.847C609.915 182.477 584.992 173.903 574.659 170.411C585.46 171.812 611.582 175.063 615.235 174.22C619.855 173.149 622.171 165.944 620.411 158.117H620.398Z" fill="#D97757"/>
<path d="M620.398 358.117C618.637 350.298 613.468 344.822 608.854 345.887C605.208 346.73 583.056 361.166 573.928 367.186C581.745 359.486 600.538 340.786 602.161 337.364C604.215 333.035 600.107 326.698 592.983 323.219C585.859 319.74 578.423 320.425 576.363 324.759C574.74 328.181 572.049 354.759 570.994 365.76C569.939 354.759 567.248 328.188 565.624 324.759C563.57 320.425 556.128 319.74 549.004 323.219C541.881 326.698 537.773 333.035 539.827 337.364C541.45 340.786 560.243 359.493 568.059 367.186C558.925 361.166 536.78 346.73 533.134 345.887C528.513 344.816 523.344 350.291 521.589 358.117C519.829 365.937 522.145 373.149 526.765 374.22C530.411 375.063 556.54 371.812 567.341 370.411C557.008 373.903 532.085 382.477 529.157 384.847C525.454 387.845 526.447 395.36 531.379 401.634C536.305 407.908 543.304 410.563 547.007 407.565C549.935 405.195 563.714 382.439 569.37 372.991C565.618 383.371 556.684 408.491 556.684 412.293C556.684 417.103 563.09 421 571 421C578.91 421 585.316 417.103 585.316 412.293C585.316 408.497 576.382 383.371 572.63 372.991C578.286 382.439 592.065 405.195 594.994 407.565C598.696 410.563 605.695 407.908 610.621 401.634C615.547 395.36 616.546 387.845 612.843 384.847C609.915 382.477 584.992 373.903 574.659 370.411C585.46 371.812 611.582 375.063 615.235 374.22C619.855 373.149 622.171 365.944 620.411 358.117H620.398Z" fill="#D97757"/>
<path d="M720.398 58.1174C718.637 50.2975 713.468 44.8223 708.854 45.8869C705.208 46.7298 683.056 61.1656 673.928 67.1858C681.745 59.4863 700.538 40.7856 702.161 37.3636C704.215 33.0354 700.107 26.6984 692.983 23.2193C685.859 19.7403 678.423 20.4247 676.363 24.7592C674.74 28.1812 672.049 54.7588 670.994 65.7599C669.939 54.7588 667.248 28.1876 665.624 24.7592C663.57 20.4247 656.128 19.7403 649.004 23.2193C641.881 26.6984 637.773 33.0354 639.827 37.3636C641.45 40.7856 660.243 59.4926 668.059 67.1858C658.925 61.1656 636.78 46.7298 633.134 45.8869C628.513 44.816 623.344 50.2912 621.589 58.1174C619.829 65.9374 622.145 73.1489 626.765 74.2199C630.411 75.0627 656.54 71.8118 667.341 70.4113C657.008 73.903 632.085 82.4771 629.157 84.8471C625.454 87.8446 626.447 95.3603 631.379 101.634C636.305 107.908 643.304 110.563 647.007 107.565C649.935 105.195 663.714 82.439 669.37 72.9905C665.618 83.3706 656.684 108.491 656.684 112.293C656.684 117.103 663.09 121 671 121C678.91 121 685.316 117.103 685.316 112.293C685.316 108.497 676.382 83.3706 672.63 72.9905C678.286 82.439 692.065 105.195 694.994 107.565C698.696 110.563 705.695 107.908 710.621 101.634C715.547 95.3603 716.546 87.8446 712.843 84.8471C709.915 82.4771 684.992 73.903 674.659 70.4113C685.46 71.8118 711.582 75.0627 715.235 74.2199C719.855 73.1489 722.171 65.9437 720.411 58.1174H720.398Z" fill="#D97757"/>
<path d="M720.398 258.117C718.637 250.298 713.468 244.822 708.854 245.887C705.208 246.73 683.056 261.166 673.928 267.186C681.745 259.486 700.538 240.786 702.161 237.364C704.215 233.035 700.107 226.698 692.983 223.219C685.859 219.74 678.423 220.425 676.363 224.759C674.74 228.181 672.049 254.759 670.994 265.76C669.939 254.759 667.248 228.188 665.624 224.759C663.57 220.425 656.128 219.74 649.004 223.219C641.881 226.698 637.773 233.035 639.827 237.364C641.45 240.786 660.243 259.493 668.059 267.186C658.925 261.166 636.78 246.73 633.134 245.887C628.513 244.816 623.344 250.291 621.589 258.117C619.829 265.937 622.145 273.149 626.765 274.22C630.411 275.063 656.54 271.812 667.341 270.411C657.008 273.903 632.085 282.477 629.157 284.847C625.454 287.845 626.447 295.36 631.379 301.634C636.305 307.908 643.304 310.563 647.007 307.565C649.935 305.195 663.714 282.439 669.37 272.991C665.618 283.371 656.684 308.491 656.684 312.293C656.684 317.103 663.09 321 671 321C678.91 321 685.316 317.103 685.316 312.293C685.316 308.497 676.382 283.371 672.63 272.991C678.286 282.439 692.065 305.195 694.994 307.565C698.696 310.563 705.695 307.908 710.621 301.634C715.547 295.36 716.546 287.845 712.843 284.847C709.915 282.477 684.992 273.903 674.659 270.411C685.46 271.812 711.582 275.063 715.235 274.22C719.855 273.149 722.171 265.944 720.411 258.117H720.398Z" fill="#D97757"/>
<path d="M106.066 136.355C74.8586 167.563 74.8586 175.859 106.066 207.066C74.8586 175.859 66.5628 175.859 35.3553 207.066C66.5628 175.859 66.5628 167.563 35.3553 136.355C66.5628 167.563 74.8586 167.563 106.066 136.355Z" fill="#57B9D9"/>
<path d="M106.066 336.355C74.8586 367.563 74.8586 375.859 106.066 407.066C74.8586 375.859 66.5628 375.859 35.3553 407.066C66.5628 375.859 66.5628 367.563 35.3553 336.355C66.5628 367.563 74.8586 367.563 106.066 336.355Z" fill="#57B9D9"/>
<path d="M206.066 35.3553C174.859 66.5628 174.859 74.8586 206.066 106.066C174.859 74.8586 166.563 74.8586 135.355 106.066C166.563 74.8586 166.563 66.5628 135.355 35.3553C166.563 66.5628 174.859 66.5628 206.066 35.3553Z" fill="#57B9D9"/>
<path d="M206.066 235.355C174.859 266.563 174.859 274.859 206.066 306.066C174.859 274.859 166.563 274.859 135.355 306.066C166.563 274.859 166.563 266.563 135.355 235.355C166.563 266.563 174.859 266.563 206.066 235.355Z" fill="#57B9D9"/>
<path d="M306.066 136.355C274.859 167.563 274.859 175.859 306.066 207.066C274.859 175.859 266.563 175.859 235.355 207.066C266.563 175.859 266.563 167.563 235.355 136.355C266.563 167.563 274.859 167.563 306.066 136.355Z" fill="#57B9D9"/>
<path d="M306.066 336.355C274.859 367.563 274.859 375.859 306.066 407.066C274.859 375.859 266.563 375.859 235.355 407.066C266.563 375.859 266.563 367.563 235.355 336.355C266.563 367.563 274.859 367.563 306.066 336.355Z" fill="#57B9D9"/>
<path d="M406.066 35.3553C374.859 66.5628 374.859 74.8586 406.066 106.066C374.859 74.8586 366.563 74.8586 335.355 106.066C366.563 74.8586 366.563 66.5628 335.355 35.3553C366.563 66.5628 374.859 66.5628 406.066 35.3553Z" fill="#57B9D9"/>
<path d="M406.066 235.355C374.859 266.563 374.859 274.859 406.066 306.066C374.859 274.859 366.563 274.859 335.355 306.066C366.563 274.859 366.563 266.563 335.355 235.355C366.563 266.563 374.859 266.563 406.066 235.355Z" fill="#57B9D9"/>
<path d="M506.066 136.355C474.859 167.563 474.859 175.859 506.066 207.066C474.859 175.859 466.563 175.859 435.355 207.066C466.563 175.859 466.563 167.563 435.355 136.355C466.563 167.563 474.859 167.563 506.066 136.355Z" fill="#57B9D9"/>
<path d="M506.066 336.355C474.859 367.563 474.859 375.859 506.066 407.066C474.859 375.859 466.563 375.859 435.355 407.066C466.563 375.859 466.563 367.563 435.355 336.355C466.563 367.563 474.859 367.563 506.066 336.355Z" fill="#57B9D9"/>
<path d="M606.066 35.3553C574.859 66.5628 574.859 74.8586 606.066 106.066C574.859 74.8586 566.563 74.8586 535.355 106.066C566.563 74.8586 566.563 66.5628 535.355 35.3553C566.563 66.5628 574.859 66.5628 606.066 35.3553Z" fill="#57B9D9"/>
<path d="M606.066 235.355C574.859 266.563 574.859 274.859 606.066 306.066C574.859 274.859 566.563 274.859 535.355 306.066C566.563 274.859 566.563 266.563 535.355 235.355C566.563 266.563 574.859 266.563 606.066 235.355Z" fill="#57B9D9"/>
<path d="M706.066 136.355C674.859 167.563 674.859 175.859 706.066 207.066C674.859 175.859 666.563 175.859 635.355 207.066C666.563 175.859 666.563 167.563 635.355 136.355C666.563 167.563 674.859 167.563 706.066 136.355Z" fill="#57B9D9"/>
<path d="M706.066 336.355C674.859 367.563 674.859 375.859 706.066 407.066C674.859 375.859 666.563 375.859 635.355 407.066C666.563 375.859 666.563 367.563 635.355 336.355C666.563 367.563 674.859 367.563 706.066 336.355Z" fill="#57B9D9"/>
</svg>
